<?xml version="1.0" encoding="UTF-8"?>
<svg id="Layer_1" data-name="Layer 1" xmlns="http://www.w3.org/2000/svg" xmlns:xlink="http://www.w3.org/1999/xlink" viewBox="0 0 1091.53 1080.62">
  <defs>
    <style>
      .cls-1, .cls-2, .cls-3, .cls-4 {
        fill: none;
      }

      .cls-5 {
        fill: #e15151;
      }

      .cls-6, .cls-7, .cls-8, .cls-9, .cls-10, .cls-11, .cls-12, .cls-13, .cls-14, .cls-15, .cls-16 {
        isolation: isolate;
      }

      .cls-6, .cls-8, .cls-9, .cls-10, .cls-11, .cls-12, .cls-13, .cls-17, .cls-14, .cls-15, .cls-16 {
        fill: #282a2b;
      }

      .cls-6, .cls-10, .cls-11, .cls-12, .cls-13, .cls-14 {
        font-family: Montserrat-Bold, Montserrat;
        font-weight: 700;
      }

      .cls-6, .cls-14 {
        font-size: 91.85px;
      }

      .cls-18, .cls-19 {
        fill: #fcda1c;
      }

      .cls-2 {
        stroke-linecap: round;
        stroke-linejoin: round;
        stroke-width: 2.83px;
      }

      .cls-2, .cls-20, .cls-3, .cls-4, .cls-19 {
        stroke: #282a2b;
      }

      .cls-20, .cls-3, .cls-4, .cls-19, .cls-21 {
        stroke-miterlimit: 10;
      }

      .cls-20, .cls-4, .cls-19, .cls-21 {
        stroke-width: 2.13px;
      }

      .cls-20, .cls-22, .cls-21 {
        fill: #fff;
      }

      .cls-23 {
        fill: #90cbdb;
      }

      .cls-3 {
        stroke-width: .99px;
      }

      .cls-8 {
        letter-spacing: .05em;
      }

      .cls-8, .cls-9 {
        font-size: 32.77px;
      }

      .cls-8, .cls-9, .cls-15, .cls-16 {
        font-family: Montserrat-Regular, Montserrat;
      }

      .cls-9 {
        letter-spacing: .05em;
      }

      .cls-21 {
        stroke: #000;
      }

      .cls-24 {
        fill: #7687fb;
      }

      .cls-10 {
        letter-spacing: .05em;
      }

      .cls-10, .cls-11, .cls-12, .cls-13 {
        font-size: 85.59px;
      }

      .cls-11 {
        letter-spacing: .05em;
      }

      .cls-12 {
        letter-spacing: .05em;
      }

      .cls-13 {
        letter-spacing: .04em;
      }

      .cls-25 {
        fill: #a3549c;
      }

      .cls-14 {
        letter-spacing: -.04em;
      }

      .cls-26 {
        fill: #88bc51;
      }

      .cls-27 {
        clip-path: url(#clippath);
      }

      .cls-15 {
        letter-spacing: .05em;
      }

      .cls-15, .cls-16 {
        font-size: 43.9px;
      }

      .cls-16 {
        letter-spacing: .03em;
      }
    </style>
    <clipPath id="clippath">
      <rect class="cls-1" x="5.43" y="185.29" width="1024" height="682.67"/>
    </clipPath>
  </defs>
  <g id="OBJECTS">
    <g class="cls-27">
      <g>
        <rect class="cls-4" x="735.74" y="257.91" width="131.69" height="131.69"/>
        <g>
          <g>
            <rect class="cls-20" x="795.36" y="252.5" width="12.45" height="12.45"/>
            <rect class="cls-20" x="795.36" y="383.22" width="12.45" height="12.45"/>
          </g>
          <g>
            <rect class="cls-20" x="860.87" y="252.5" width="12.45" height="12.45"/>
            <rect class="cls-20" x="860.87" y="383.22" width="12.45" height="12.45"/>
          </g>
          <g>
            <rect class="cls-20" x="729.84" y="252.5" width="12.45" height="12.45"/>
            <rect class="cls-20" x="729.84" y="383.22" width="12.45" height="12.45"/>
          </g>
          <rect class="cls-20" x="861.68" y="317.86" width="12.45" height="12.45"/>
          <rect class="cls-20" x="729.84" y="317.86" width="12.45" height="12.45"/>
        </g>
        <g>
          <g>
            <g>
              <g>
                <g class="cls-7">
                  <text class="cls-14" transform="translate(490.69 806.11)"><tspan x="0" y="0">A</tspan></text>
                  <text class="cls-6" transform="translate(557.1 806.11)"><tspan x="0" y="0">Y</tspan></text>
                </g>
                <g class="cls-7">
                  <text class="cls-6" transform="translate(414.32 805.71)"><tspan x="0" y="0">D</tspan></text>
                </g>
              </g>
              <g class="cls-7">
                <text class="cls-11" transform="translate(265.16 715.03)"><tspan x="0" y="0">GRA</tspan></text>
                <text class="cls-13" transform="translate(472.46 715.03)"><tspan x="0" y="0">P</tspan></text>
                <text class="cls-10" transform="translate(538.53 715.03)"><tspan x="0" y="0">HI</tspan></text>
                <text class="cls-13" transform="translate(644.33 715.03)"><tspan x="0" y="0">C</tspan></text>
                <text class="cls-12" transform="translate(710.82 715.03)"><tspan x="0" y="0">S</tspan></text>
              </g>
            </g>
            <g>
              <path class="cls-24" d="M485.23,405.49h-1.42v-14.27c0-3.35-2.72-6.06-6.06-6.06s-6.06,2.72-6.06,6.06v14.27h-1.42l-68.62,128.4,4.01,3.48c13.63,11.81,23.03,27.48,27.2,44.67h-15.03c-3.35,0-6.06,2.72-6.06,6.06s2.72,6.06,6.06,6.06h17.07c.26,2.69.41,5.39.41,8.11v17.93h85.25v-25.4c.01-.22.03-.42.05-.64h17.07c3.35,0,6.06-2.72,6.06-6.06s-2.72-6.06-6.06-6.06h-15.03c4.16-17.2,13.57-32.86,27.2-44.67l4.01-3.48-68.62-128.4h0Z"/>
              <path class="cls-18" d="M565.67,405.49h-1.42v-14.27c0-3.35-2.72-6.06-6.06-6.06s-6.06,2.72-6.06,6.06v14.27h-1.42l-68.62,128.4,4.01,3.48c13.63,11.81,23.03,27.48,27.2,44.67h-15.03c-3.35,0-6.06,2.72-6.06,6.06s2.72,6.06,6.06,6.06h17.07c.26,2.69.41,5.39.41,8.11v17.93h85.25v-25.4c.01-.22.03-.42.05-.64h17.07c3.35,0,6.06-2.72,6.06-6.06s-2.72-6.06-6.06-6.06h-15.03c4.16-17.2,13.57-32.86,27.2-44.67l4.01-3.48-68.62-128.4h0Z"/>
              <g>
                <path class="cls-17" d="M525.5,405.16h-1.42v-14.27c0-3.35-2.72-6.06-6.06-6.06s-6.06,2.72-6.06,6.06v14.27h-1.42l-68.62,128.4,4.01,3.48c13.63,11.81,23.03,27.48,27.2,44.67h-15.03c-3.35,0-6.06,2.72-6.06,6.06s2.72,6.06,6.06,6.06h17.07c.26,2.69.41,5.39.41,8.11v17.93h12.14v-17.93c0-2.72-.14-5.42-.37-8.11h19.97v26.04h53.51v-25.4c.01-.22.03-.42.05-.64h17.07c3.35,0,6.06-2.72,6.06-6.06s-2.72-6.06-6.06-6.06h-15.03c4.16-17.2,13.57-32.86,27.2-44.67l4.01-3.48-68.62-128.4ZM550.45,581.71h-64.87c-4.08-19.35-13.93-37.12-28.47-50.9l54.83-102.58v100.45c-2.8,1.93-4.63,5.15-4.63,8.81,0,5.91,4.79,10.7,10.7,10.7s10.7-4.79,10.7-10.7c0-3.66-1.84-6.87-4.63-8.81v-100.45l54.83,102.58c-14.53,13.78-24.38,31.55-28.47,50.9h-.01Z"/>
                <g>
                  <path class="cls-2" d="M317.37,583.22c0-110.24,89.36-199.6,199.6-199.6s199.6,89.36,199.6,199.6"/>
                  <path class="cls-17" d="M318.01,571.47h0c8.19,0,14.84,6.65,14.84,14.84h0c0,8.19-6.65,14.84-14.84,14.84h0c-8.19,0-14.84-6.65-14.84-14.84h0c0-8.19,6.65-14.84,14.84-14.84Z"/>
                  <path class="cls-17" d="M715.76,571.47h0c8.19,0,14.84,6.65,14.84,14.84h0c0,8.19-6.65,14.84-14.84,14.84h0c-8.19,0-14.84-6.65-14.84-14.84h0c0-8.19,6.65-14.84,14.84-14.84Z"/>
                </g>
                <rect class="cls-21" x="504.75" y="370.52" width="26.53" height="26.53"/>
              </g>
            </g>
            <g class="cls-7">
              <text class="cls-16" transform="translate(417.03 350.44)"><tspan x="0" y="0">W</tspan></text>
              <text class="cls-15" transform="translate(467.07 350.44)"><tspan x="0" y="0">ORLD</tspan></text>
            </g>
          </g>
          <g>
            <g>
              <path class="cls-24" d="M162.87,349.1c-13.68,12.86-32.09,20.75-52.33,20.75-8.34,0-16.37-1.35-23.88-3.82-.22,2.35-.34,4.71-.34,7.11,0,42.22,34.23,76.45,76.45,76.45s76.45-34.23,76.45-76.45c0-2.38-.12-4.71-.34-7.03-7.45,2.42-15.4,3.75-23.65,3.75-20.26,0-38.67-7.89-52.33-20.75h-.01Z"/>
              <path class="cls-5" d="M139.09,300.44c-.2-2.32-.34-4.66-.34-7.03,0-21.97,9.27-41.75,24.11-55.69-13.68-12.86-32.09-20.75-52.33-20.75-42.22,0-76.45,34.23-76.45,76.45,0,33.87,22.04,62.59,52.57,72.62,2.84-30.82,23.98-56.33,52.46-65.59h-.01Z"/>
              <path class="cls-25" d="M162.87,349.1c-13.23-12.44-22.02-29.52-23.77-48.66-28.48,9.26-49.6,34.76-52.46,65.59,7.52,2.47,15.54,3.82,23.88,3.82,20.26,0,38.67-7.89,52.33-20.75h.01Z"/>
              <path class="cls-26" d="M291.65,293.4c0-42.22-34.23-76.45-76.45-76.45-20.26,0-38.67,7.89-52.33,20.75,14.83,13.94,24.11,33.72,24.11,55.69,0,2.4-.12,4.77-.34,7.11,28.39,9.33,49.41,34.82,52.22,65.59,30.64-9.97,52.8-38.73,52.8-72.7h-.01Z"/>
              <path class="cls-23" d="M186.63,300.51c-1.76,19.1-10.55,36.17-23.77,48.58,13.68,12.86,32.09,20.75,52.33,20.75,8.26,0,16.21-1.32,23.65-3.75-2.81-30.77-23.84-56.25-52.22-65.59h.01Z"/>
              <path class="cls-18" d="M138.76,293.4c0,2.38.12,4.71.34,7.03,7.45-2.42,15.4-3.75,23.65-3.75s16.37,1.35,23.88,3.82c.22-2.35.34-4.71.34-7.11,0-21.97-9.27-41.75-24.11-55.69-14.83,13.94-24.11,33.72-24.11,55.69h.01Z"/>
              <path class="cls-22" d="M139.09,300.44c1.75,19.14,10.54,36.22,23.77,48.66,13.22-12.42,22.01-29.48,23.77-48.58-7.52-2.47-15.54-3.82-23.88-3.82s-16.21,1.32-23.65,3.75h-.01Z"/>
            </g>
            <g>
              <g class="cls-7">
                <text class="cls-9" transform="translate(74.7 295.29)"><tspan x="0" y="0">R</tspan></text>
              </g>
              <g class="cls-7">
                <text class="cls-8" transform="translate(214.9 295.29)"><tspan x="0" y="0">G</tspan></text>
              </g>
            </g>
            <g class="cls-7">
              <text class="cls-8" transform="translate(149.74 399.33)"><tspan x="0" y="0">B</tspan></text>
            </g>
          </g>
          <g>
            <rect class="cls-5" x="511.85" y="222.89" width="266.53" height="65.13"/>
            <g>
              <g>
                <line class="cls-3" x1="1064.41" x2="1064.41" y2="317.13"/>
                <line class="cls-3" x1="1031.55" x2="1031.55" y2="317.13"/>
                <line class="cls-3" x1="998.69" x2="998.69" y2="317.13"/>
                <line class="cls-3" x1="965.82" x2="965.82" y2="317.13"/>
                <line class="cls-3" x1="932.97" x2="932.97" y2="317.13"/>
                <line class="cls-3" x1="900.11" x2="900.11" y2="317.13"/>
                <line class="cls-3" x1="867.25" x2="867.25" y2="317.13"/>
                <line class="cls-3" x1="834.38" x2="834.38" y2="317.13"/>
                <line class="cls-3" x1="801.52" x2="801.52" y2="317.13"/>
              </g>
              <g>
                <line class="cls-3" x1="1091.53" y1="290.01" x2="774.4" y2="290.01"/>
                <line class="cls-3" x1="1091.53" y1="257.15" x2="774.4" y2="257.15"/>
                <line class="cls-3" x1="1091.53" y1="224.28" x2="774.4" y2="224.28"/>
                <line class="cls-3" x1="1091.53" y1="191.42" x2="774.4" y2="191.42"/>
                <line class="cls-3" x1="1091.53" y1="158.56" x2="774.4" y2="158.56"/>
                <line class="cls-3" x1="1091.53" y1="125.71" x2="774.4" y2="125.71"/>
                <line class="cls-3" x1="1091.53" y1="92.84" x2="774.4" y2="92.84"/>
                <line class="cls-3" x1="1091.53" y1="59.98" x2="774.4" y2="59.98"/>
                <line class="cls-3" x1="1091.53" y1="27.12" x2="774.4" y2="27.12"/>
              </g>
            </g>
            <g>
              <rect class="cls-19" x="735.74" y="257.91" width="131.69" height="131.69"/>
              <polygon class="cls-24" points="983.41 457.61 867.49 316.05 867.42 316.12 867.42 389.6 807.27 389.6 751.58 457.61 983.41 457.61"/>
              <polygon class="cls-26" points="867.42 316.12 807.27 389.6 867.42 389.6 867.42 316.12"/>
            </g>
          </g>
          <g>
            <rect class="cls-23" y="563.19" width="127.67" height="127.67"/>
            <g>
              <g>
                <path class="cls-17" d="M65.25,636.74c0,1.38-1.12,2.51-2.51,2.51s-2.51-1.12-2.51-2.51,1.12-2.51,2.51-2.51,2.51,1.12,2.51,2.51Z"/>
                <path class="cls-17" d="M86.9,636.74c0,1.38-1.12,2.51-2.51,2.51s-2.51-1.12-2.51-2.51,1.12-2.51,2.51-2.51,2.51,1.12,2.51,2.51Z"/>
                <path class="cls-17" d="M108.56,636.74c0,1.38-1.12,2.51-2.51,2.51s-2.51-1.12-2.51-2.51,1.12-2.51,2.51-2.51,2.51,1.12,2.51,2.51Z"/>
                <path class="cls-17" d="M130.21,636.74c0,1.38-1.12,2.51-2.51,2.51s-2.51-1.12-2.51-2.51,1.12-2.51,2.51-2.51,2.51,1.12,2.51,2.51Z"/>
                <path class="cls-17" d="M151.87,636.74c0,1.38-1.12,2.51-2.51,2.51s-2.51-1.12-2.51-2.51,1.12-2.51,2.51-2.51,2.51,1.12,2.51,2.51Z"/>
                <path class="cls-17" d="M173.52,636.74c0,1.38-1.12,2.51-2.51,2.51s-2.51-1.12-2.51-2.51,1.12-2.51,2.51-2.51,2.51,1.12,2.51,2.51Z"/>
                <path class="cls-17" d="M195.17,636.74c0,1.38-1.12,2.51-2.51,2.51s-2.51-1.12-2.51-2.51,1.12-2.51,2.51-2.51,2.51,1.12,2.51,2.51Z"/>
              </g>
              <g>
                <path class="cls-17" d="M65.25,658.58c0,1.38-1.12,2.51-2.51,2.51s-2.51-1.12-2.51-2.51,1.12-2.51,2.51-2.51,2.51,1.12,2.51,2.51Z"/>
                <path class="cls-17" d="M86.9,658.58c0,1.38-1.12,2.51-2.51,2.51s-2.51-1.12-2.51-2.51,1.12-2.51,2.51-2.51,2.51,1.12,2.51,2.51Z"/>
                <path class="cls-17" d="M108.56,658.58c0,1.38-1.12,2.51-2.51,2.51s-2.51-1.12-2.51-2.51,1.12-2.51,2.51-2.51,2.51,1.12,2.51,2.51Z"/>
                <path class="cls-17" d="M130.21,658.58c0,1.38-1.12,2.51-2.51,2.51s-2.51-1.12-2.51-2.51,1.12-2.51,2.51-2.51,2.51,1.12,2.51,2.51Z"/>
                <path class="cls-17" d="M151.87,658.58c0,1.38-1.12,2.51-2.51,2.51s-2.51-1.12-2.51-2.51,1.12-2.51,2.51-2.51,2.51,1.12,2.51,2.51Z"/>
                <path class="cls-17" d="M173.52,658.58c0,1.38-1.12,2.51-2.51,2.51s-2.51-1.12-2.51-2.51,1.12-2.51,2.51-2.51,2.51,1.12,2.51,2.51Z"/>
                <path class="cls-17" d="M195.17,658.58c0,1.38-1.12,2.51-2.51,2.51s-2.51-1.12-2.51-2.51,1.12-2.51,2.51-2.51,2.51,1.12,2.51,2.51Z"/>
              </g>
              <g>
                <path class="cls-17" d="M65.25,613.2c0,1.38-1.12,2.51-2.51,2.51s-2.51-1.12-2.51-2.51,1.12-2.51,2.51-2.51,2.51,1.12,2.51,2.51Z"/>
                <path class="cls-17" d="M86.9,613.2c0,1.38-1.12,2.51-2.51,2.51s-2.51-1.12-2.51-2.51,1.12-2.51,2.51-2.51,2.51,1.12,2.51,2.51Z"/>
                <path class="cls-17" d="M108.56,613.2c0,1.38-1.12,2.51-2.51,2.51s-2.51-1.12-2.51-2.51,1.12-2.51,2.51-2.51,2.51,1.12,2.51,2.51Z"/>
                <path class="cls-17" d="M130.21,613.2c0,1.38-1.12,2.51-2.51,2.51s-2.51-1.12-2.51-2.51,1.12-2.51,2.51-2.51,2.51,1.12,2.51,2.51Z"/>
                <path class="cls-17" d="M151.87,613.2c0,1.38-1.12,2.51-2.51,2.51s-2.51-1.12-2.51-2.51,1.12-2.51,2.51-2.51,2.51,1.12,2.51,2.51Z"/>
                <path class="cls-17" d="M173.52,613.2c0,1.38-1.12,2.51-2.51,2.51s-2.51-1.12-2.51-2.51,1.12-2.51,2.51-2.51,2.51,1.12,2.51,2.51Z"/>
                <path class="cls-17" d="M195.17,613.2c0,1.38-1.12,2.51-2.51,2.51s-2.51-1.12-2.51-2.51,1.12-2.51,2.51-2.51,2.51,1.12,2.51,2.51Z"/>
              </g>
              <g>
                <path class="cls-17" d="M65.25,589.66c0,1.38-1.12,2.51-2.51,2.51s-2.51-1.12-2.51-2.51,1.12-2.51,2.51-2.51,2.51,1.12,2.51,2.51Z"/>
                <path class="cls-17" d="M86.9,589.66c0,1.38-1.12,2.51-2.51,2.51s-2.51-1.12-2.51-2.51,1.12-2.51,2.51-2.51,2.51,1.12,2.51,2.51Z"/>
                <path class="cls-17" d="M108.56,589.66c0,1.38-1.12,2.51-2.51,2.51s-2.51-1.12-2.51-2.51,1.12-2.51,2.51-2.51,2.51,1.12,2.51,2.51Z"/>
                <path class="cls-17" d="M130.21,589.66c0,1.38-1.12,2.51-2.51,2.51s-2.51-1.12-2.51-2.51,1.12-2.51,2.51-2.51,2.51,1.12,2.51,2.51Z"/>
                <path class="cls-17" d="M151.87,589.66c0,1.38-1.12,2.51-2.51,2.51s-2.51-1.12-2.51-2.51,1.12-2.51,2.51-2.51,2.51,1.12,2.51,2.51Z"/>
                <path class="cls-17" d="M173.52,589.66c0,1.38-1.12,2.51-2.51,2.51s-2.51-1.12-2.51-2.51,1.12-2.51,2.51-2.51,2.51,1.12,2.51,2.51Z"/>
                <path class="cls-17" d="M195.17,589.66c0,1.38-1.12,2.51-2.51,2.51s-2.51-1.12-2.51-2.51,1.12-2.51,2.51-2.51,2.51,1.12,2.51,2.51Z"/>
              </g>
              <g>
                <path class="cls-17" d="M65.25,566.12c0,1.38-1.12,2.51-2.51,2.51s-2.51-1.12-2.51-2.51,1.12-2.51,2.51-2.51,2.51,1.12,2.51,2.51Z"/>
                <path class="cls-17" d="M86.9,566.12c0,1.38-1.12,2.51-2.51,2.51s-2.51-1.12-2.51-2.51,1.12-2.51,2.51-2.51,2.51,1.12,2.51,2.51Z"/>
                <path class="cls-17" d="M108.56,566.12c0,1.38-1.12,2.51-2.51,2.51s-2.51-1.12-2.51-2.51,1.12-2.51,2.51-2.51,2.51,1.12,2.51,2.51Z"/>
                <path class="cls-17" d="M130.21,566.12c0,1.38-1.12,2.51-2.51,2.51s-2.51-1.12-2.51-2.51,1.12-2.51,2.51-2.51,2.51,1.12,2.51,2.51Z"/>
                <path class="cls-17" d="M151.87,566.12c0,1.38-1.12,2.51-2.51,2.51s-2.51-1.12-2.51-2.51,1.12-2.51,2.51-2.51,2.51,1.12,2.51,2.51Z"/>
                <path class="cls-17" d="M173.52,566.12c0,1.38-1.12,2.51-2.51,2.51s-2.51-1.12-2.51-2.51,1.12-2.51,2.51-2.51,2.51,1.12,2.51,2.51Z"/>
                <path class="cls-17" d="M195.17,566.12c0,1.38-1.12,2.51-2.51,2.51s-2.51-1.12-2.51-2.51,1.12-2.51,2.51-2.51,2.51,1.12,2.51,2.51Z"/>
              </g>
              <g>
                <path class="cls-17" d="M65.25,542.58c0,1.38-1.12,2.51-2.51,2.51s-2.51-1.12-2.51-2.51,1.12-2.51,2.51-2.51,2.51,1.12,2.51,2.51Z"/>
                <path class="cls-17" d="M86.9,542.58c0,1.38-1.12,2.51-2.51,2.51s-2.51-1.12-2.51-2.51,1.12-2.51,2.51-2.51,2.51,1.12,2.51,2.51Z"/>
                <path class="cls-17" d="M108.56,542.58c0,1.38-1.12,2.51-2.51,2.51s-2.51-1.12-2.51-2.51,1.12-2.51,2.51-2.51,2.51,1.12,2.51,2.51Z"/>
                <path class="cls-17" d="M130.21,542.58c0,1.38-1.12,2.51-2.51,2.51s-2.51-1.12-2.51-2.51,1.12-2.51,2.51-2.51,2.51,1.12,2.51,2.51Z"/>
                <path class="cls-17" d="M151.87,542.58c0,1.38-1.12,2.51-2.51,2.51s-2.51-1.12-2.51-2.51,1.12-2.51,2.51-2.51,2.51,1.12,2.51,2.51Z"/>
                <path class="cls-17" d="M173.52,542.58c0,1.38-1.12,2.51-2.51,2.51s-2.51-1.12-2.51-2.51,1.12-2.51,2.51-2.51,2.51,1.12,2.51,2.51Z"/>
                <path class="cls-17" d="M195.17,542.58c0,1.38-1.12,2.51-2.51,2.51s-2.51-1.12-2.51-2.51,1.12-2.51,2.51-2.51,2.51,1.12,2.51,2.51Z"/>
              </g>
              <g>
                <path class="cls-17" d="M65.25,519.05c0,1.38-1.12,2.51-2.51,2.51s-2.51-1.12-2.51-2.51,1.12-2.51,2.51-2.51,2.51,1.12,2.51,2.51Z"/>
                <path class="cls-17" d="M86.9,519.05c0,1.38-1.12,2.51-2.51,2.51s-2.51-1.12-2.51-2.51,1.12-2.51,2.51-2.51,2.51,1.12,2.51,2.51Z"/>
                <path class="cls-17" d="M108.56,519.05c0,1.38-1.12,2.51-2.51,2.51s-2.51-1.12-2.51-2.51,1.12-2.51,2.51-2.51,2.51,1.12,2.51,2.51Z"/>
                <path class="cls-17" d="M130.21,519.05c0,1.38-1.12,2.51-2.51,2.51s-2.51-1.12-2.51-2.51,1.12-2.51,2.51-2.51,2.51,1.12,2.51,2.51Z"/>
                <path class="cls-17" d="M151.87,519.05c0,1.38-1.12,2.51-2.51,2.51s-2.51-1.12-2.51-2.51,1.12-2.51,2.51-2.51,2.51,1.12,2.51,2.51Z"/>
                <path class="cls-17" d="M173.52,519.05c0,1.38-1.12,2.51-2.51,2.51s-2.51-1.12-2.51-2.51,1.12-2.51,2.51-2.51,2.51,1.12,2.51,2.51Z"/>
                <path class="cls-17" d="M195.17,519.05c0,1.38-1.12,2.51-2.51,2.51s-2.51-1.12-2.51-2.51,1.12-2.51,2.51-2.51,2.51,1.12,2.51,2.51Z"/>
              </g>
            </g>
          </g>
          <g>
            <g>
              <circle class="cls-17" cx="914.38" cy="479.81" r="2.46"/>
              <circle class="cls-17" cx="914.38" cy="500.64" r="2.46"/>
              <circle class="cls-17" cx="914.38" cy="521.48" r="2.46"/>
              <circle class="cls-17" cx="914.38" cy="542.31" r="2.46"/>
              <circle class="cls-17" cx="914.38" cy="563.16" r="2.46"/>
              <circle class="cls-17" cx="914.38" cy="583.99" r="2.46"/>
              <circle class="cls-17" cx="914.38" cy="604.83" r="2.46"/>
              <circle class="cls-17" cx="914.38" cy="625.66" r="2.46"/>
              <circle class="cls-17" cx="914.38" cy="646.5" r="2.46"/>
              <circle class="cls-17" cx="914.38" cy="667.35" r="2.46"/>
              <circle class="cls-17" cx="914.38" cy="688.18" r="2.46"/>
              <circle class="cls-17" cx="914.38" cy="709.02" r="2.46"/>
            </g>
            <rect class="cls-18" x="818.76" y="740.97" width="171.84" height="65.13"/>
            <g>
              <line class="cls-2" x1="845.41" y1="772.7" x2="967.09" y2="772.7"/>
              <line class="cls-2" x1="950.31" y1="654.16" x2="950.31" y2="789.48"/>
            </g>
            <rect class="cls-5" x="850.3" y="585.14" width="37.45" height="127.37"/>
          </g>
          <g>
            <rect class="cls-26" x="148.41" y="740.97" width="275.91" height="65.13"/>
            <g>
              <g>
                <line class="cls-3" x1="355.83" y1="763.49" x2="355.83" y2="1080.62"/>
                <line class="cls-3" x1="322.97" y1="763.49" x2="322.97" y2="1080.62"/>
                <line class="cls-3" x1="290.11" y1="763.49" x2="290.11" y2="1080.62"/>
                <line class="cls-3" x1="257.24" y1="763.49" x2="257.24" y2="1080.62"/>
                <line class="cls-3" x1="224.38" y1="763.49" x2="224.38" y2="1080.62"/>
                <line class="cls-3" x1="191.53" y1="763.49" x2="191.53" y2="1080.62"/>
                <line class="cls-3" x1="158.67" y1="763.49" x2="158.67" y2="1080.62"/>
                <line class="cls-3" x1="125.8" y1="763.49" x2="125.8" y2="1080.62"/>
                <line class="cls-3" x1="92.94" y1="763.49" x2="92.94" y2="1080.62"/>
              </g>
              <g>
                <line class="cls-3" x1="382.95" y1="1053.5" x2="65.82" y2="1053.5"/>
                <line class="cls-3" x1="382.95" y1="1020.64" x2="65.82" y2="1020.64"/>
                <line class="cls-3" x1="382.95" y1="987.79" x2="65.82" y2="987.79"/>
                <line class="cls-3" x1="382.95" y1="954.93" x2="65.82" y2="954.93"/>
                <line class="cls-3" x1="382.95" y1="922.06" x2="65.82" y2="922.06"/>
                <line class="cls-3" x1="382.95" y1="889.2" x2="65.82" y2="889.2"/>
                <line class="cls-3" x1="382.95" y1="856.34" x2="65.82" y2="856.34"/>
                <line class="cls-3" x1="382.95" y1="823.47" x2="65.82" y2="823.47"/>
                <line class="cls-3" x1="382.95" y1="790.62" x2="65.82" y2="790.62"/>
              </g>
            </g>
          </g>
          <polygon points="831.67 533.42 774.68 513.3 796.84 569.54 806.53 544.04 831.67 533.42"/>
          <g>
            <g>
              <rect class="cls-18" x="344.26" y="367.44" width="26.97" height="26.97"/>
              <g>
                <line class="cls-2" x1="357.73" y1="357.57" x2="357.73" y2="404.29"/>
                <line class="cls-2" x1="381.09" y1="380.93" x2="334.37" y2="380.93"/>
              </g>
            </g>
            <g>
              <rect class="cls-18" x="232.88" y="565.43" width="26.97" height="26.97"/>
              <g>
                <line class="cls-2" x1="246.36" y1="555.55" x2="246.36" y2="602.28"/>
                <line class="cls-2" x1="269.74" y1="578.92" x2="223" y2="578.92"/>
              </g>
            </g>
            <g>
              <rect class="cls-18" x="678.35" y="764.97" width="26.97" height="26.97"/>
              <g>
                <line class="cls-2" x1="691.84" y1="755.08" x2="691.84" y2="801.82"/>
                <line class="cls-2" x1="715.2" y1="778.46" x2="668.48" y2="778.46"/>
              </g>
            </g>
          </g>
          <g>
            <g>
              <rect class="cls-3" x="318.57" y="248.86" width="52.84" height="53.62"/>
              <rect class="cls-3" x="345.91" y="209.24" width="85.78" height="53.62"/>
            </g>
            <g>
              <polygon class="cls-17" points="424.63 233.81 406.99 216.16 424.63 216.16 424.63 233.81"/>
              <line class="cls-3" x1="421.75" y1="219.05" x2="400.78" y2="239.64"/>
            </g>
          </g>
        </g>
      </g>
    </g>
  </g>
</svg>